<?xml version="1.0" encoding="utf-8"?>
<!-- Generator: Adobe Illustrator 27.7.0, SVG Export Plug-In . SVG Version: 6.00 Build 0)  -->
<svg version="1.1" id="Camada_1" xmlns="http://www.w3.org/2000/svg" xmlns:xlink="http://www.w3.org/1999/xlink" x="0px" y="0px"
	 viewBox="0 0 1000 1000" style="enable-background:new 0 0 1000 1000;" xml:space="preserve">
<style type="text/css">
	.st0{fill:#3F83F8;}
</style>
<g>
	<path class="st0" d="M699.23,666.1c0,79.13-64.14,143.27-143.27,143.27H161.38l244.63-423.72c18.9-32.73,53.82-52.89,91.62-52.89
		h61.05L344.56,703.6h211.4c60.7-0.45,112.41-37.65,132.84-91.27C695.52,628.93,699.23,647.09,699.23,666.1z"/>
	<path class="st0" d="M300.77,333.9c0-79.13,64.14-143.27,143.27-143.27h394.58L593.99,614.36c-18.9,32.73-53.82,52.89-91.62,52.89
		h-61.05L655.44,296.4h-211.4c-60.7,0.45-112.41,37.65-132.84,91.27C304.48,371.07,300.77,352.91,300.77,333.9z"/>
	<path class="st0" d="M989.64,103.45h-545.6c-127.07,0-230.46,103.39-230.46,230.46c0,29.9,5.66,59,16.82,86.52l22.62,55.83
		L48.11,831.16l-37.75,65.39h545.6c127.07,0,230.46-103.39,230.46-230.46c0-29.87-5.66-58.99-16.82-86.51l-22.62-55.84l204.9-354.91
		L989.64,103.45z M555.96,852.96H85.87l215.55-373.35l-30.62-75.57c-9.05-22.3-13.62-45.9-13.62-70.12
		c0-103.04,83.82-186.87,186.86-186.87h470.09L698.58,520.39l30.62,75.57c9.05,22.31,13.62,45.91,13.62,70.12
		C742.82,769.13,659,852.96,555.96,852.96z"/>
</g>
</svg>
